<svg width="12" height="12" viewBox="0 0 12 12" fill="none" xmlns="http://www.w3.org/2000/svg">
<path d="M0 2.25C0 1.42266 0.672656 0.75 1.5 0.75H10.5C11.3273 0.75 12 1.42266 12 2.25V9.75C12 10.5773 11.3273 11.25 10.5 11.25H1.5C0.672656 11.25 0 10.5773 0 9.75V2.25ZM5.25 2.25V9.75H10.5V2.25H5.25ZM2.0625 2.25C1.75078 2.25 1.5 2.50078 1.5 2.8125C1.5 3.12422 1.75078 3.375 2.0625 3.375H3.1875C3.49922 3.375 3.75 3.12422 3.75 2.8125C3.75 2.50078 3.49922 2.25 3.1875 2.25H2.0625ZM1.5 5.0625C1.5 5.37422 1.75078 5.625 2.0625 5.625H3.1875C3.49922 5.625 3.75 5.37422 3.75 5.0625C3.75 4.75078 3.49922 4.5 3.1875 4.5H2.0625C1.75078 4.5 1.5 4.75078 1.5 5.0625ZM2.0625 6.75C1.75078 6.75 1.5 7.00078 1.5 7.3125C1.5 7.62422 1.75078 7.875 2.0625 7.875H3.1875C3.49922 7.875 3.75 7.62422 3.75 7.3125C3.75 7.00078 3.49922 6.75 3.1875 6.75H2.0625Z" fill="white"/>
</svg>
