<svg width="24" height="14" viewBox="0 0 24 14" fill="none" xmlns="http://www.w3.org/2000/svg">
<path d="M5.712 9.56C7.232 11.048 8.96 11.904 10.896 12.128L11.496 12.2C9.816 13.256 7.888 13.592 5.712 13.208C4.544 13 3.488 12.608 2.544 12.032C1.6 11.44 0.848 10.728 0.288 9.896C1.536 8.984 3.024 8.512 4.752 8.48C5.056 8.864 5.376 9.224 5.712 9.56ZM10.944 11.6C9.136 11.392 7.512 10.584 6.072 9.176C5.24 8.344 4.6 7.416 4.152 6.392C3.704 5.368 3.488 4.36 3.504 3.368C4.464 3.336 5.44 3.52 6.432 3.92C7.424 4.32 8.336 4.904 9.168 5.672C9.152 5.816 9.144 5.952 9.144 6.08C9.144 8.224 9.744 10.064 10.944 11.6ZM19.272 8.48C21 8.512 22.496 8.984 23.76 9.896C23.2 10.728 22.44 11.44 21.48 12.032C20.536 12.608 19.48 13 18.312 13.208C16.152 13.576 14.224 13.24 12.528 12.2L13.152 12.128C15.088 11.904 16.808 11.048 18.312 9.56C18.664 9.224 18.984 8.864 19.272 8.48ZM14.88 6.08C14.88 5.952 14.88 5.816 14.88 5.672C15.712 4.904 16.616 4.32 17.592 3.92C18.584 3.52 19.56 3.336 20.52 3.368C20.536 4.36 20.32 5.368 19.872 6.392C19.44 7.416 18.8 8.344 17.952 9.176C16.512 10.584 14.888 11.392 13.08 11.6C14.28 10.064 14.88 8.224 14.88 6.08ZM12.024 0.344C12.744 1.032 13.312 1.896 13.728 2.936C14.144 3.96 14.352 5.064 14.352 6.248C14.352 7.432 14.144 8.544 13.728 9.584C13.312 10.608 12.744 11.472 12.024 12.176C11.288 11.472 10.712 10.608 10.296 9.584C9.896 8.544 9.696 7.432 9.696 6.248C9.696 5.064 9.896 3.96 10.296 2.936C10.712 1.896 11.288 1.032 12.024 0.344ZM4.392 7.952C3.672 8 2.968 8.128 2.28 8.336C1.672 7.6 1.24 6.816 0.984 5.984C1.688 5.712 2.448 5.576 3.264 5.576C3.52 6.408 3.896 7.2 4.392 7.952ZM21.912 8.336C21.224 8.128 20.52 8 19.8 7.952C20.296 7.2 20.664 6.408 20.904 5.576C21.72 5.576 22.488 5.712 23.208 5.984C22.936 6.816 22.504 7.6 21.912 8.336ZM10.008 2.288C9.608 3.136 9.344 4.04 9.216 5C8.624 4.488 7.976 4.056 7.272 3.704C7.288 2.68 7.48 1.752 7.848 0.92C8.6 1.224 9.32 1.68 10.008 2.288ZM16.8 3.704C16.096 4.056 15.44 4.488 14.832 5C14.72 4.04 14.464 3.136 14.064 2.288C14.752 1.68 15.472 1.224 16.224 0.92C16.592 1.752 16.784 2.68 16.8 3.704Z" fill="#D5B4FF"/>
</svg>
