<svg width="12" height="12" viewBox="0 0 12 12" fill="none" xmlns="http://www.w3.org/2000/svg">
<path d="M10.8977 10.102L8.67157 7.87494C9.33902 7.00516 9.65064 5.91406 9.54321 4.82297C9.43577 3.73188 8.91733 2.72251 8.09306 1.99962C7.26878 1.27672 6.20039 0.894429 5.10462 0.930291C4.00884 0.966154 2.96773 1.41748 2.19249 2.19273C1.41724 2.96798 0.965909 4.00908 0.930047 5.10486C0.894185 6.20063 1.27648 7.26902 1.99937 8.0933C2.72227 8.91758 3.73164 9.43602 4.82273 9.54345C5.91381 9.65088 7.00491 9.33926 7.87469 8.67181L10.1027 10.9002C10.155 10.9526 10.2171 10.9941 10.2855 11.0224C10.3538 11.0507 10.4271 11.0653 10.5011 11.0653C10.5751 11.0653 10.6484 11.0507 10.7167 11.0224C10.7851 10.9941 10.8472 10.9526 10.8995 10.9002C10.9519 10.8479 10.9934 10.7858 11.0217 10.7174C11.05 10.6491 11.0646 10.5758 11.0646 10.5018C11.0646 10.4278 11.05 10.3545 11.0217 10.2862C10.9934 10.2178 10.9519 10.1557 10.8995 10.1034L10.8977 10.102ZM2.06219 5.24994C2.06219 4.61951 2.24914 4.00324 2.59938 3.47906C2.94963 2.95487 3.44745 2.54632 4.02989 2.30507C4.61233 2.06382 5.25323 2.00069 5.87154 2.12368C6.48986 2.24667 7.05781 2.55025 7.50359 2.99603C7.94937 3.44181 8.25295 4.00977 8.37595 4.62809C8.49894 5.2464 8.43581 5.8873 8.19456 6.46974C7.9533 7.05218 7.54475 7.55 7.02057 7.90024C6.49639 8.25049 5.88012 8.43744 5.24969 8.43744C4.40458 8.43657 3.59433 8.10046 2.99675 7.50288C2.39916 6.90529 2.06306 6.09505 2.06219 5.24994Z" fill="#8E8E93"/>
</svg>
